<svg xmlns="http://www.w3.org/2000/svg" width="24" height="24" viewBox="0 0 1024 1024" fill="none">
  <!-- ByteAsk "1Q" mark for the Activity Bar, traced (via potrace) directly
       from the original logo's pixels —transparent background,
       single-color (currentColor) fill only, since VS Code renders
       activitybar icons as a monochrome alpha mask and discards any actual
       fill color / background shape. The two-tone teal-bg/white-glyph
       version lives in icon.png (Marketplace icon) instead. -->
  <g transform="translate(0.000000,1024.000000) scale(0.100000,-0.100000)" fill="currentColor" stroke="none">
    <path d="M2800 9241 c-39 -8 -110 -45 -182 -94 -25 -18 -83 -54 -127 -82 -44
-27 -81 -53 -81 -57 0 -4 -19 -20 -42 -35 -24 -15 -81 -52 -126 -83 -108 -71
-178 -117 -238 -156 -27 -18 -65 -44 -84 -58 -19 -15 -64 -47 -98 -73 -72 -52
-115 -110 -115 -153 0 -37 47 -107 86 -127 46 -23 106 -12 184 35 38 22 82 44
98 48 17 4 46 15 66 25 44 22 75 15 87 -20 5 -15 5 -116 0 -246 -14 -352 -26
-1734 -27 -3135 -1 -782 -5 -1349 -11 -1431 -6 -75 -12 -249 -13 -387 l-2
-250 30 -44 c54 -77 58 -78 409 -78 301 0 309 1 348 22 22 13 46 35 54 50 12
23 14 478 14 3106 0 1953 -4 3090 -10 3112 -11 38 -52 85 -92 106 -29 15 -70
16 -128 5z M5145 6640 c-38 -4 -108 -8 -155 -9 -96 -1 -185 -17 -314 -55 -48
-14 -94 -26 -101 -26 -20 0 -211 -77 -305 -123 -204 -99 -319 -191 -502 -401
-134 -152 -143 -166 -227 -332 -101 -200 -162 -383 -188 -560 -35 -249 -19
-682 32 -864 70 -247 105 -344 176 -483 100 -193 348 -477 536 -609 306 -217
612 -317 1038 -340 196 -10 554 -3 607 13 18 5 78 16 133 25 146 23 326 88
495 180 80 43 163 93 185 111 22 18 63 51 90 74 101 83 298 276 341 331 43 57
114 189 129 238 4 14 22 59 40 100 53 121 105 297 120 410 8 58 20 143 26 190
21 138 23 331 5 410 -9 38 -16 93 -16 122 0 76 -26 220 -54 307 -14 42 -28 92
-31 111 -4 19 -22 64 -40 100 -18 36 -57 114 -86 174 -88 179 -220 336 -389
463 -139 104 -166 123 -176 123 -5 0 -27 12 -48 26 -59 40 -222 122 -268 135
-23 6 -66 22 -97 36 -53 23 -154 49 -356 92 -89 19 -382 43 -480 40 -27 -1
-81 -5 -120 -9z m346 -254 c174 -27 368 -109 489 -206 65 -53 147 -140 177
-189 9 -14 27 -37 39 -51 67 -75 177 -335 205 -485 12 -60 27 -131 35 -157 8
-26 14 -66 14 -90 0 -24 7 -78 15 -121 12 -61 15 -158 15 -425 -1 -368 -6
-426 -59 -642 -78 -315 -175 -496 -371 -689 -106 -105 -105 -105 -275 -181
-51 -23 -105 -36 -179 -45 -32 -4 -76 -13 -98 -21 -65 -23 -179 -17 -324 15
-72 17 -148 36 -170 44 -113 42 -176 74 -239 122 -82 62 -260 256 -308 337
-52 86 -128 246 -148 313 -10 33 -27 85 -38 115 -10 30 -24 98 -31 150 -6 52
-18 132 -26 177 -8 45 -14 103 -14 130 0 26 -7 91 -15 143 -19 120 -19 306 0
390 8 36 14 92 15 125 0 33 5 76 10 95 6 19 17 77 25 129 9 52 27 127 41 165
14 39 34 100 45 136 12 36 29 81 40 100 10 19 27 55 37 80 74 177 335 420 501
466 31 8 85 25 119 36 138 44 319 57 473 34z M6685 3094 c-38 -32 -125 -92
-179 -123 -22 -13 -57 -34 -76 -46 -19 -13 -82 -44 -140 -70 -58 -26 -113 -55
-122 -63 -34 -29 -22 -64 47 -136 36 -37 78 -84 93 -105 15 -20 77 -93 137
-162 61 -70 169 -195 240 -279 72 -84 196 -229 278 -324 205 -238 218 -253
272 -321 26 -33 67 -80 91 -105 45 -47 136 -152 292 -337 168 -198 257 -243
418 -213 79 15 208 72 285 127 92 65 213 196 248 268 67 142 74 132 -312 509
-169 165 -340 330 -380 366 -40 35 -162 153 -272 261 -110 109 -225 219 -255
245 -30 26 -125 114 -210 197 -85 82 -171 161 -190 176 -19 14 -66 56 -105 93
-80 77 -109 85 -160 42z"/>
  </g>
</svg>
